<?xml version="1.0" encoding="UTF-8"?>
<svg xmlns="http://www.w3.org/2000/svg" version="1.1" viewBox="0 0 1920 1080">
  <!-- Generator: Adobe Illustrator 29.5.1, SVG Export Plug-In . SVG Version: 2.1.0 Build 141)  -->
  <defs>
    <style>
      .st0, .st1 {
        fill: #fff;
      }

      .st2 {
        fill: #ffb0a1;
      }

      .st1 {
        stroke: #000;
        stroke-miterlimit: 10;
      }

      .st3 {
        fill: #ff8b7b;
      }

      .st4 {
        fill: #0089ce;
      }

      .st5 {
        fill: #114463;
      }

      .st6 {
        display: none;
      }
    </style>
  </defs>
  <g id="_레이어_2" data-name="레이어_2" class="st6">
    <rect class="st1" x="1728" y="722.03" width="192" height="192"/>
    <g>
      <rect class="st0" x="1536.5" y="722.53" width="191" height="191"/>
      <path d="M1727,723.03v190h-190v-190h190M1728,722.03h-192v192h192v-192h0Z"/>
    </g>
    <g>
      <rect class="st0" x=".5" y="722.53" width="191" height="191"/>
      <path d="M191,723.03v190H1v-190h190M192,722.03H0v192h192v-192h0Z"/>
    </g>
    <g>
      <rect class="st0" x="192.5" y="722.53" width="191" height="191"/>
      <path d="M383,723.03v190h-190v-190h190M384,722.03h-192v192h192v-192h0Z"/>
    </g>
    <g>
      <rect class="st0" x="384.5" y="722.53" width="191" height="191"/>
      <path d="M575,723.03v190h-190v-190h190M576,722.03h-192v192h192v-192h0Z"/>
    </g>
    <g>
      <rect class="st0" x="576.5" y="722.53" width="191" height="191"/>
      <path d="M767,723.03v190h-190v-190h190M768,722.03h-192v192h192v-192h0Z"/>
    </g>
    <g>
      <rect class="st0" x="768.5" y="722.53" width="191" height="191"/>
      <path d="M959,723.03v190h-190v-190h190M960,722.03h-192v192h192v-192h0Z"/>
    </g>
    <g>
      <rect class="st0" x="960.5" y="722.53" width="191" height="191"/>
      <path d="M1151,723.03v190h-190v-190h190M1152,722.03h-192v192h192v-192h0Z"/>
    </g>
    <g>
      <rect class="st0" x="1152.5" y="722.53" width="191" height="191"/>
      <path d="M1343,723.03v190h-190v-190h190M1344,722.03h-192v192h192v-192h0Z"/>
    </g>
    <g>
      <rect class="st0" x="1344.5" y="722.53" width="191" height="191"/>
      <path d="M1535,723.03v190h-190v-190h190M1536,722.03h-192v192h192v-192h0Z"/>
    </g>
  </g>
  <g id="_레이어_1" data-name="레이어_1">
    <path class="st2" d="M65.78,844.82c-5.52-3.07-12.37-.43-16.41,8.13-8.44-4.29-14.71-2.77-17.2,3.04s-.18,13.68,8.54,18.52c6.17,3.42,13.57,6.34,18.11,5.2,4.3-1.98,7.83-8.55,10.61-15.03,3.92-9.17,2.08-16.68-3.64-19.86Z"/>
    <path class="st3" d="M98.94,846.32c-5.55-4.25-13.47-2.47-19.27,6.25-8.54-6.06-15.65-5.4-19.31.55-3.79,6.17-2.41,14.93,6.35,21.64,6.2,4.74,13.82,9.12,18.97,8.62,5.03-1.47,9.95-8.09,14.03-14.73,5.77-9.4,4.97-17.92-.78-22.31Z"/>
    <path class="st3" d="M163.05,855.49c-2.85-6.38-10.66-8.59-19.92-3.7-4.62-9.4-11.18-12.21-17.23-8.73-6.27,3.61-9.24,11.98-4.74,22.05,3.18,7.12,7.79,14.61,12.56,16.62,5.12,1.11,12.6-2.36,19.36-6.26,9.56-5.5,12.91-13.38,9.96-19.98Z"/>
    <path class="st2" d="M142.38,861.54c-2.41-7.14-10.57-10.32-21.01-6.02-4-10.57-10.75-14.27-17.61-11.14-7.11,3.24-11.15,11.92-7.35,23.19,2.69,7.98,6.87,16.49,11.79,19.14,5.38,1.72,13.78-1.24,21.44-4.73,10.83-4.93,15.24-13.04,12.75-20.44Z"/>
    <path class="st5" d="M141.25,896.66H52.33c-1.18,0-2.31-.5-3.11-1.37l-22.34-24.49c-2.46-2.7-.55-7.03,3.11-7.03h133.59c3.65,0,5.57,4.34,3.11,7.03l-22.34,24.49c-.8.87-1.92,1.37-3.11,1.37Z"/>
    <rect class="st5" x="123.61" y="740.51" width="4" height="134.29"/>
    <path class="st4" d="M82.91,793.41c-20.79,19.51-40.7,26.51-40.7,26.51,0,0,18.98,11.55,38.83,13.75,21,2.33,42.57.27,42.57.27v-85.79s-20.63,26.42-40.7,45.25Z"/>
    <path class="st2" d="M257.78,844.82c-5.52-3.07-12.37-.43-16.41,8.13-8.44-4.29-14.71-2.77-17.2,3.04s-.18,13.68,8.54,18.52c6.17,3.42,13.57,6.34,18.11,5.2,4.3-1.98,7.83-8.55,10.61-15.03,3.92-9.17,2.08-16.68-3.64-19.86Z"/>
    <path class="st3" d="M290.94,846.32c-5.55-4.25-13.47-2.47-19.27,6.25-8.54-6.06-15.65-5.4-19.31.55-3.79,6.17-2.41,14.93,6.35,21.64,6.2,4.74,13.82,9.12,18.97,8.62,5.03-1.47,9.95-8.09,14.03-14.73,5.77-9.4,4.97-17.92-.78-22.31Z"/>
    <path class="st3" d="M355.05,855.49c-2.85-6.38-10.66-8.59-19.92-3.7-4.62-9.4-11.18-12.21-17.23-8.73-6.27,3.61-9.24,11.98-4.74,22.05,3.18,7.12,7.79,14.61,12.56,16.62,5.12,1.11,12.6-2.36,19.36-6.26,9.56-5.5,12.91-13.38,9.96-19.98Z"/>
    <path class="st2" d="M334.38,861.54c-2.41-7.14-10.57-10.32-21.01-6.02-4-10.57-10.75-14.27-17.61-11.14-7.11,3.24-11.15,11.92-7.35,23.19,2.69,7.98,6.87,16.49,11.79,19.14,5.38,1.72,13.78-1.24,21.44-4.73,10.83-4.93,15.24-13.04,12.75-20.44Z"/>
    <path class="st5" d="M333.25,896.66h-88.92c-1.18,0-2.31-.5-3.11-1.37l-22.34-24.49c-2.46-2.7-.55-7.03,3.11-7.03h133.59c3.65,0,5.57,4.34,3.11,7.03l-22.34,24.49c-.8.87-1.92,1.37-3.11,1.37Z"/>
    <rect class="st5" x="315.61" y="740.51" width="4" height="134.29"/>
    <path class="st4" d="M277.21,783.92c-19.62,19.51-38.41,36-38.41,36,0,0,19.68,6.29,38.41,8.49,19.82,2.33,38.41,5.53,38.41,5.53v-85.79s-19.46,16.93-38.41,35.76Z"/>
    <path class="st2" d="M449.78,844.82c-5.52-3.07-12.37-.43-16.41,8.13-8.44-4.29-14.71-2.77-17.2,3.04s-.18,13.68,8.54,18.52c6.17,3.42,13.57,6.34,18.11,5.2,4.3-1.98,7.83-8.55,10.61-15.03,3.92-9.17,2.08-16.68-3.64-19.86Z"/>
    <path class="st3" d="M482.94,846.32c-5.55-4.25-13.47-2.47-19.27,6.25-8.54-6.06-15.65-5.4-19.31.55-3.79,6.17-2.41,14.93,6.35,21.64,6.2,4.74,13.82,9.12,18.97,8.62,5.03-1.47,9.95-8.09,14.03-14.73,5.77-9.4,4.97-17.92-.78-22.31Z"/>
    <path class="st3" d="M547.05,855.49c-2.85-6.38-10.66-8.59-19.92-3.7-4.62-9.4-11.18-12.21-17.23-8.73-6.27,3.61-9.24,11.98-4.74,22.05,3.18,7.12,7.79,14.61,12.56,16.62,5.12,1.11,12.6-2.36,19.36-6.26,9.56-5.5,12.91-13.38,9.96-19.98Z"/>
    <path class="st2" d="M526.38,861.54c-2.41-7.14-10.57-10.32-21.01-6.02-4-10.57-10.75-14.27-17.61-11.14-7.11,3.24-11.15,11.92-7.35,23.19,2.69,7.98,6.87,16.49,11.79,19.14,5.38,1.72,13.78-1.24,21.44-4.73,10.83-4.93,15.24-13.04,12.75-20.44Z"/>
    <path class="st5" d="M525.25,896.66h-88.92c-1.18,0-2.31-.5-3.11-1.37l-22.34-24.49c-2.46-2.7-.55-7.03,3.11-7.03h133.59c3.65,0,5.57,4.34,3.11,7.03l-22.34,24.49c-.8.87-1.92,1.37-3.11,1.37Z"/>
    <rect class="st5" x="507.61" y="740.51" width="4" height="134.29"/>
    <path class="st4" d="M465.02,772.6c-18.46,19.51-29.68,47.33-29.68,47.33,0,0,25.98-3.82,43.6-1.62,18.65,2.33,28.67,15.64,28.67,15.64v-85.79s-24.77,5.61-42.59,24.44Z"/>
    <path class="st2" d="M641.78,844.82c-5.52-3.07-12.37-.43-16.41,8.13-8.44-4.29-14.71-2.77-17.2,3.04s-.18,13.68,8.54,18.52c6.17,3.42,13.57,6.34,18.11,5.2,4.3-1.98,7.83-8.55,10.61-15.03,3.92-9.17,2.08-16.68-3.64-19.86Z"/>
    <path class="st3" d="M674.94,846.32c-5.55-4.25-13.47-2.47-19.27,6.25-8.54-6.06-15.65-5.4-19.31.55-3.79,6.17-2.41,14.93,6.35,21.64,6.2,4.74,13.82,9.12,18.97,8.62,5.03-1.47,9.95-8.09,14.03-14.73,5.77-9.4,4.97-17.92-.78-22.31Z"/>
    <path class="st3" d="M739.05,855.49c-2.85-6.38-10.66-8.59-19.92-3.7-4.62-9.4-11.18-12.21-17.23-8.73-6.27,3.61-9.24,11.98-4.74,22.05,3.18,7.12,7.79,14.61,12.56,16.62,5.12,1.11,12.6-2.36,19.36-6.26,9.56-5.5,12.91-13.38,9.96-19.98Z"/>
    <path class="st2" d="M718.38,861.54c-2.41-7.14-10.57-10.32-21.01-6.02-4-10.57-10.75-14.27-17.61-11.14-7.11,3.24-11.15,11.92-7.35,23.19,2.69,7.98,6.87,16.49,11.79,19.14,5.38,1.72,13.78-1.24,21.44-4.73,10.83-4.93,15.24-13.04,12.75-20.44Z"/>
    <path class="st5" d="M717.25,896.66h-88.92c-1.18,0-2.31-.5-3.11-1.37l-22.34-24.49c-2.46-2.7-.55-7.03,3.11-7.03h133.59c3.65,0,5.57,4.34,3.11,7.03l-22.34,24.49c-.8.87-1.92,1.37-3.11,1.37Z"/>
    <rect class="st5" x="699.61" y="740.51" width="4" height="134.29"/>
    <path class="st4" d="M644.78,769.49c-18.69,19.51-17.43,58.25-17.43,58.25,0,0,31.41-16.77,49.25-14.56,18.88,2.33,23.02,20.76,23.02,20.76v-85.79s-36.79,2.5-54.84,21.34Z"/>
    <path class="st2" d="M833.78,844.82c-5.52-3.07-12.37-.43-16.41,8.13-8.44-4.29-14.71-2.77-17.2,3.04s-.18,13.68,8.54,18.52c6.17,3.42,13.57,6.34,18.11,5.2,4.3-1.98,7.83-8.55,10.61-15.03,3.92-9.17,2.08-16.68-3.64-19.86Z"/>
    <path class="st3" d="M866.94,846.32c-5.55-4.25-13.47-2.47-19.27,6.25-8.54-6.06-15.65-5.4-19.31.55-3.79,6.17-2.41,14.93,6.35,21.64,6.2,4.74,13.82,9.12,18.97,8.62,5.03-1.47,9.95-8.09,14.03-14.73,5.77-9.4,4.97-17.92-.78-22.31Z"/>
    <path class="st3" d="M931.05,855.49c-2.85-6.38-10.66-8.59-19.92-3.7-4.62-9.4-11.18-12.21-17.23-8.73-6.27,3.61-9.24,11.98-4.74,22.05,3.18,7.12,7.79,14.61,12.56,16.62,5.12,1.11,12.6-2.36,19.36-6.26,9.56-5.5,12.91-13.38,9.96-19.98Z"/>
    <path class="st2" d="M910.38,861.54c-2.41-7.14-10.57-10.32-21.01-6.02-4-10.57-10.75-14.27-17.61-11.14-7.11,3.24-11.15,11.92-7.35,23.19,2.69,7.98,6.87,16.49,11.79,19.14,5.38,1.72,13.78-1.24,21.44-4.73,10.83-4.93,15.24-13.04,12.75-20.44Z"/>
    <path class="st5" d="M909.25,896.66h-88.92c-1.18,0-2.31-.5-3.11-1.37l-22.34-24.49c-2.46-2.7-.55-7.03,3.11-7.03h133.59c3.65,0,5.57,4.34,3.11,7.03l-22.34,24.49c-.8.87-1.92,1.37-3.11,1.37Z"/>
    <rect class="st5" x="891.61" y="740.51" width="4" height="134.29"/>
    <path class="st4" d="M837.45,785.94c-18.39,19.51-17.84,33.98-17.84,33.98,0,0,30.21-6.25,47.77-4.04,18.58,2.33,24.23,18.07,24.23,18.07v-85.79s-36.41,18.96-54.16,37.79Z"/>
    <path class="st2" d="M1025.78,844.82c-5.52-3.07-12.37-.43-16.41,8.13-8.44-4.29-14.71-2.77-17.2,3.04-2.58,6.02-.18,13.68,8.54,18.52,6.17,3.42,13.57,6.34,18.11,5.2,4.3-1.98,7.83-8.55,10.61-15.03,3.92-9.17,2.08-16.68-3.64-19.86Z"/>
    <path class="st3" d="M1058.94,846.32c-5.55-4.25-13.47-2.47-19.27,6.25-8.54-6.06-15.65-5.4-19.31.55-3.79,6.17-2.41,14.93,6.35,21.64,6.2,4.74,13.82,9.12,18.97,8.62,5.03-1.47,9.95-8.09,14.03-14.73,5.77-9.4,4.97-17.92-.78-22.31Z"/>
    <path class="st3" d="M1123.05,855.49c-2.85-6.38-10.66-8.59-19.92-3.7-4.62-9.4-11.18-12.21-17.23-8.73-6.27,3.61-9.24,11.98-4.74,22.05,3.18,7.12,7.79,14.61,12.56,16.62,5.12,1.11,12.6-2.36,19.36-6.26,9.56-5.5,12.91-13.38,9.96-19.98Z"/>
    <path class="st2" d="M1102.38,861.54c-2.41-7.14-10.57-10.32-21.01-6.02-4-10.57-10.75-14.27-17.61-11.14-7.11,3.24-11.15,11.92-7.35,23.19,2.69,7.98,6.87,16.49,11.79,19.14,5.38,1.72,13.78-1.24,21.44-4.73,10.83-4.93,15.24-13.04,12.75-20.44Z"/>
    <path class="st5" d="M1101.25,896.66h-88.92c-1.18,0-2.31-.5-3.11-1.37l-22.34-24.49c-2.46-2.7-.55-7.03,3.11-7.03h133.59c3.65,0,5.57,4.34,3.11,7.03l-22.34,24.49c-.8.87-1.92,1.37-3.11,1.37Z"/>
    <rect class="st5" x="1083.61" y="740.51" width="4" height="134.29"/>
    <path class="st4" d="M1041.02,794.84c-16.66,19.51-22.65,25.08-22.65,25.08,0,0,22.5,4,38.41,6.2,16.83,2.33,26.83,7.82,26.83,7.82v-85.79s-26.5,27.85-42.59,46.69Z"/>
    <path class="st2" d="M1217.78,844.82c-5.52-3.07-12.37-.43-16.41,8.13-8.44-4.29-14.71-2.77-17.2,3.04-2.58,6.02-.18,13.68,8.54,18.52,6.17,3.42,13.57,6.34,18.11,5.2,4.3-1.98,7.83-8.55,10.61-15.03,3.92-9.17,2.08-16.68-3.64-19.86Z"/>
    <path class="st3" d="M1250.94,846.32c-5.55-4.25-13.47-2.47-19.27,6.25-8.54-6.06-15.65-5.4-19.31.55-3.79,6.17-2.41,14.93,6.35,21.64,6.2,4.74,13.82,9.12,18.97,8.62,5.03-1.47,9.95-8.09,14.03-14.73,5.77-9.4,4.97-17.92-.78-22.31Z"/>
    <path class="st3" d="M1315.05,855.49c-2.85-6.38-10.66-8.59-19.92-3.7-4.62-9.4-11.18-12.21-17.23-8.73-6.27,3.61-9.24,11.98-4.74,22.05,3.18,7.12,7.79,14.61,12.56,16.62,5.12,1.11,12.6-2.36,19.36-6.26,9.56-5.5,12.91-13.38,9.96-19.98Z"/>
    <path class="st2" d="M1294.38,861.54c-2.41-7.14-10.57-10.32-21.01-6.02-4-10.57-10.75-14.27-17.61-11.14-7.11,3.24-11.15,11.92-7.35,23.19,2.69,7.98,6.87,16.49,11.79,19.14,5.38,1.72,13.78-1.24,21.44-4.73,10.83-4.93,15.24-13.04,12.75-20.44Z"/>
    <path class="st5" d="M1293.25,896.66h-88.92c-1.18,0-2.31-.5-3.11-1.37l-22.34-24.49c-2.46-2.7-.55-7.03,3.11-7.03h133.59c3.65,0,5.57,4.34,3.11,7.03l-22.34,24.49c-.8.87-1.92,1.37-3.11,1.37Z"/>
    <rect class="st5" x="1275.61" y="740.51" width="4" height="134.29"/>
    <path class="st4" d="M1223.5,793.22c-16.66,19.51-17.96,32.76-17.96,32.76,0,0,25.5-1.8,41.41.4,16.83,2.33,28.67,7.55,28.67,7.55v-85.79s-36.03,26.23-52.11,45.07Z"/>
    <path class="st2" d="M1409.78,844.82c-5.52-3.07-12.37-.43-16.41,8.13-8.44-4.29-14.71-2.77-17.2,3.04-2.58,6.02-.18,13.68,8.54,18.52,6.17,3.42,13.57,6.34,18.11,5.2,4.3-1.98,7.83-8.55,10.61-15.03,3.92-9.17,2.08-16.68-3.64-19.86Z"/>
    <path class="st3" d="M1442.94,846.32c-5.55-4.25-13.47-2.47-19.27,6.25-8.54-6.06-15.65-5.4-19.31.55-3.79,6.17-2.41,14.93,6.35,21.64,6.2,4.74,13.82,9.12,18.97,8.62,5.03-1.47,9.95-8.09,14.03-14.73,5.77-9.4,4.97-17.92-.78-22.31Z"/>
    <path class="st3" d="M1507.05,855.49c-2.85-6.38-10.66-8.59-19.92-3.7-4.62-9.4-11.18-12.21-17.23-8.73-6.27,3.61-9.24,11.98-4.74,22.05,3.18,7.12,7.79,14.61,12.56,16.62,5.12,1.11,12.6-2.36,19.36-6.26,9.56-5.5,12.91-13.38,9.96-19.98Z"/>
    <path class="st2" d="M1486.38,861.54c-2.41-7.14-10.57-10.32-21.01-6.02-4-10.57-10.75-14.27-17.61-11.14-7.11,3.24-11.15,11.92-7.35,23.19,2.69,7.98,6.87,16.49,11.79,19.14,5.38,1.72,13.78-1.24,21.44-4.73,10.83-4.93,15.24-13.04,12.75-20.44Z"/>
    <path class="st5" d="M1485.25,896.66h-88.92c-1.18,0-2.31-.5-3.11-1.37l-22.34-24.49c-2.46-2.7-.55-7.03,3.11-7.03h133.59c3.65,0,5.57,4.34,3.11,7.03l-22.34,24.49c-.8.87-1.92,1.37-3.11,1.37Z"/>
    <rect class="st5" x="1467.61" y="740.51" width="4" height="134.29"/>
    <path class="st4" d="M1427.88,791.05c-17.59,19.51-29.12,28.87-29.12,28.87,0,0,17.64,6.69,34.43,8.9,17.77,2.33,34.43,5.13,34.43,5.13v-85.79s-22.76,24.06-39.74,42.89Z"/>
    <path class="st2" d="M1601.78,844.82c-5.52-3.07-12.37-.43-16.41,8.13-8.44-4.29-14.71-2.77-17.2,3.04-2.58,6.02-.18,13.68,8.54,18.52,6.17,3.42,13.57,6.34,18.11,5.2,4.3-1.98,7.83-8.55,10.61-15.03,3.92-9.17,2.08-16.68-3.64-19.86Z"/>
    <path class="st3" d="M1634.94,846.32c-5.55-4.25-13.47-2.47-19.27,6.25-8.54-6.06-15.65-5.4-19.31.55-3.79,6.17-2.41,14.93,6.35,21.64,6.2,4.74,13.82,9.12,18.97,8.62,5.03-1.47,9.95-8.09,14.03-14.73,5.77-9.4,4.97-17.92-.78-22.31Z"/>
    <path class="st3" d="M1699.05,855.49c-2.85-6.38-10.66-8.59-19.92-3.7-4.62-9.4-11.18-12.21-17.23-8.73-6.27,3.61-9.24,11.98-4.74,22.05,3.18,7.12,7.79,14.61,12.56,16.62,5.12,1.11,12.6-2.36,19.36-6.26,9.56-5.5,12.91-13.38,9.96-19.98Z"/>
    <path class="st2" d="M1678.38,861.54c-2.41-7.14-10.57-10.32-21.01-6.02-4-10.57-10.75-14.27-17.61-11.14-7.11,3.24-11.15,11.92-7.35,23.19,2.69,7.98,6.87,16.49,11.79,19.14,5.38,1.72,13.78-1.24,21.44-4.73,10.83-4.93,15.24-13.04,12.75-20.44Z"/>
    <path class="st5" d="M1677.25,896.66h-88.92c-1.18,0-2.31-.5-3.11-1.37l-22.34-24.49c-2.46-2.7-.55-7.03,3.11-7.03h133.59c3.65,0,5.57,4.34,3.11,7.03l-22.34,24.49c-.8.87-1.92,1.37-3.11,1.37Z"/>
    <rect class="st5" x="1659.61" y="740.51" width="4" height="134.29"/>
    <path class="st4" d="M1622.89,793.41c-18.76,19.51-36.72,26.51-36.72,26.51,0,0,17.13,11.55,35.04,13.75,18.95,2.33,38.41.27,38.41.27v-85.79s-18.61,26.42-36.72,45.25Z"/>
    <path class="st2" d="M1793.78,844.82c-5.52-3.07-12.37-.43-16.41,8.13-8.44-4.29-14.71-2.77-17.2,3.04-2.58,6.02-.18,13.68,8.54,18.52,6.17,3.42,13.57,6.34,18.11,5.2,4.3-1.98,7.83-8.55,10.61-15.03,3.92-9.17,2.08-16.68-3.64-19.86Z"/>
    <path class="st3" d="M1826.94,846.32c-5.55-4.25-13.47-2.47-19.27,6.25-8.54-6.06-15.65-5.4-19.31.55-3.79,6.17-2.41,14.93,6.35,21.64,6.2,4.74,13.82,9.12,18.97,8.62,5.03-1.47,9.95-8.09,14.03-14.73,5.77-9.4,4.97-17.92-.78-22.31Z"/>
    <path class="st3" d="M1891.05,855.49c-2.85-6.38-10.66-8.59-19.92-3.7-4.62-9.4-11.18-12.21-17.23-8.73-6.27,3.61-9.24,11.98-4.74,22.05,3.18,7.12,7.79,14.61,12.56,16.62,5.12,1.11,12.6-2.36,19.36-6.26,9.56-5.5,12.91-13.38,9.96-19.98Z"/>
    <path class="st2" d="M1870.38,861.54c-2.41-7.14-10.57-10.32-21.01-6.02-4-10.57-10.75-14.27-17.61-11.14-7.11,3.24-11.15,11.92-7.35,23.19,2.69,7.98,6.87,16.49,11.79,19.14,5.38,1.72,13.78-1.24,21.44-4.73,10.83-4.93,15.24-13.04,12.75-20.44Z"/>
    <path class="st5" d="M1869.25,896.66h-88.92c-1.18,0-2.31-.5-3.11-1.37l-22.34-24.49c-2.46-2.7-.55-7.03,3.11-7.03h133.59c3.65,0,5.57,4.34,3.11,7.03l-22.34,24.49c-.8.87-1.92,1.37-3.11,1.37Z"/>
    <rect class="st5" x="1851.61" y="740.51" width="4" height="134.29"/>
    <path class="st4" d="M1803.79,782.71c-20.69,19.51-37.21,56.63-37.21,56.63,0,0,27.17-14.34,46.92-12.13,20.9,2.33,38.12,6.74,38.12,6.74v-85.79s-27.85,15.72-47.83,34.55Z"/>
  </g>
</svg>